<?xml version="1.0" standalone="no"?><!DOCTYPE svg PUBLIC "-//W3C//DTD SVG 1.1//EN" "http://www.w3.org/Graphics/SVG/1.1/DTD/svg11.dtd"><svg t="1664377335966" class="icon" viewBox="0 0 1024 1024" version="1.1" xmlns="http://www.w3.org/2000/svg" p-id="20893" xmlns:xlink="http://www.w3.org/1999/xlink" width="200" height="200"><path d="M912.853333 641.493333a1687.381333 1687.381333 0 0 0-34.261333-96.597333l-46.037333-114.986667c0.042667-1.365333 0.597333-23.978667 0.597333-35.669333C833.109333 197.632 740.309333 0 512 0S190.890667 197.632 190.890667 394.282667c0 11.690667 0.554667 34.304 0.597333 35.669333l-46.08 114.986667a1662.72 1662.72 0 0 0-34.218667 96.597333c-43.562667 140.074667-29.44 198.101333-18.688 199.381333 23.04 2.773333 89.728-105.472 89.728-105.472 0 62.677333 32.256 144.512 102.144 203.562667-26.112 8.021333-58.154667 20.437333-78.72 35.626667-18.517333 13.653333-16.170667 27.562667-12.842666 33.194666 14.634667 24.661333 251.008 15.744 319.232 8.064 68.266667 7.68 304.64 16.597333 319.274666-8.064 3.328-5.632 5.632-19.541333-12.842666-33.194666-20.608-15.189333-52.608-27.562667-78.762667-35.669334 69.845333-59.050667 102.101333-140.885333 102.101333-203.562666 0 0 66.688 108.245333 89.728 105.472 10.709333-1.28 24.789333-59.306667-18.688-199.381334zM540.245333 206.762667c1.664-44.885333 28.117333-80.128 59.093334-78.762667s54.656 38.912 52.992 83.797333c-1.664 44.842667-28.117333 80.128-59.093334 78.762667s-54.698667-38.912-52.992-83.797333zM424.704 128c30.933333-1.408 57.386667 33.877333 59.050667 78.762667 1.706667 44.885333-22.058667 82.389333-52.992 83.754666-30.976 1.408-57.429333-33.877333-59.093334-78.72C370.005333 166.912 393.728 129.408 424.704 128zM316.629333 353.877333c8.277333-18.346667 91.605333-38.741333 194.816-38.741333h1.109334c103.168 0 186.538667 20.437333 194.816 38.741333a5.973333 5.973333 0 0 1 0.597333 2.602667c0 1.322667-0.426667 2.517333-1.109333 3.541333-6.954667 10.154667-99.541333 60.416-194.261334 60.416h-1.109333c-94.762667 0-187.306667-50.261333-194.261333-60.416a5.802667 5.802667 0 0 1-0.597334-6.144z m444.672 367.872c-9.386667 156.842667-102.528 255.445333-246.357333 256.896h-5.845333c-143.786667-1.408-236.970667-100.053333-246.314667-256.896-3.456-57.6 0.042667-106.496 6.272-146.346666 13.568 2.688 27.221333 5.205333 40.874667 7.509333v149.589333s70.741333 14.250667 141.568 4.394667v-137.6c20.821333 1.152 40.96 1.706667 59.989333 1.450667h1.066667c71.594667 0.896 158.464-8.704 242.474666-25.344 6.229333 39.850667 9.685333 88.746667 6.272 146.346666zM447.146667 247.637333c13.354667-1.749333 23.125333-17.450667 21.674666-35.2-1.408-17.706667-13.397333-30.72-26.837333-28.970666-13.354667 1.706667-23.082667 17.450667-21.674667 35.157333 1.450667 17.792 13.44 30.72 26.837334 29.013333z m170.624-27.648c3.328 1.578667 9.429333 1.792 12.330666-6.229333 1.493333-4.053333 1.066667-7.04-0.384-9.130667-0.981333-1.408-5.674667-5.034667-15.829333-7.509333-38.570667-9.386667-57.216 16.384-59.946667 21.290667-1.706667 3.072-0.512 7.509333 2.389334 9.685333 2.858667 2.176 5.930667 1.578667 7.637333-0.256 24.746667-26.794667 51.626667-8.874667 53.802667-7.850667z" p-id="20894" fill="#2c2c2c"></path></svg>